<?xml version="1.0" encoding="UTF-8" standalone="no"?>
<!-- Generator: Adobe Illustrator 26.0.1, SVG Export Plug-In . SVG Version: 6.00 Build 0)  -->

<svg
   version="1.1"
   id="Ebene_1"
   x="0px"
   y="0px"
   viewBox="0 0 419.99999 419.99999"
   xml:space="preserve"
   width="420"
   height="420"
   sodipodi:docname="app_logo.svg"
   inkscape:version="1.4 (e7c3feb1, 2024-10-09)"
   xmlns:inkscape="http://www.inkscape.org/namespaces/inkscape"
   xmlns:sodipodi="http://sodipodi.sourceforge.net/DTD/sodipodi-0.dtd"
   xmlns:xlink="http://www.w3.org/1999/xlink"
   xmlns="http://www.w3.org/2000/svg"
   xmlns:svg="http://www.w3.org/2000/svg"><sodipodi:namedview
   id="namedview1"
   pagecolor="#ffffff"
   bordercolor="#000000"
   borderopacity="0.25"
   inkscape:showpageshadow="2"
   inkscape:pageopacity="0.0"
   inkscape:pagecheckerboard="0"
   inkscape:deskcolor="#d1d1d1"
   inkscape:zoom="1.229597"
   inkscape:cx="192.74607"
   inkscape:cy="226.9036"
   inkscape:window-width="1920"
   inkscape:window-height="1027"
   inkscape:window-x="0"
   inkscape:window-y="25"
   inkscape:window-maximized="1"
   inkscape:current-layer="g2" /><defs
   id="defs16"><linearGradient
   id="linearGradient5"><stop
     style="stop-color:#1e1e1e;stop-opacity:1;"
     offset="0.1"
     id="stop5" /><stop
     style="stop-color:#3c3c3c;stop-opacity:1;"
     offset="1"
     id="stop6" /></linearGradient>


















<filter
   style="color-interpolation-filters:sRGB"
   id="filter1"
   x="-0.028571429"
   y="-0.028571429"
   width="1.0571429"
   height="1.0571429"><feGaussianBlur
     stdDeviation="5 5"
     result="blur"
     id="feGaussianBlur1" /></filter><filter
   style="color-interpolation-filters:sRGB"
   id="filter2"
   x="-0.030000001"
   y="-0.029999999"
   width="1.0599999"
   height="1.0599999"><feGaussianBlur
     stdDeviation="5 5"
     result="blur"
     id="feGaussianBlur2" /></filter><filter
   style="color-interpolation-filters:sRGB"
   id="filter3"
   x="-0.013542245"
   y="-0.016525329"
   width="1.0270845"
   height="1.0330507"><feGaussianBlur
     stdDeviation="2 2"
     result="blur"
     id="feGaussianBlur3" /></filter><filter
   style="color-interpolation-filters:sRGB"
   id="filter2-3"
   x="-0.030000001"
   y="-0.03"
   width="1.06"
   height="1.06"><feGaussianBlur
     stdDeviation="5 5"
     result="blur"
     id="feGaussianBlur2-6" /></filter><filter
   style="color-interpolation-filters:sRGB"
   id="filter3-7"
   x="-0.013542245"
   y="-0.016525329"
   width="1.0270845"
   height="1.0330507"><feGaussianBlur
     stdDeviation="2 2"
     result="blur"
     id="feGaussianBlur3-5" /></filter><filter
   style="color-interpolation-filters:sRGB"
   id="filter4"
   x="-0.06"
   y="-0.06"
   width="1.12"
   height="1.12"><feGaussianBlur
     stdDeviation="10 10"
     result="blur"
     id="feGaussianBlur4" /></filter><filter
   style="color-interpolation-filters:sRGB"
   id="filter4-7"
   x="-0.059999999"
   y="-0.060000002"
   width="1.12"
   height="1.12"><feGaussianBlur
     stdDeviation="10 10"
     result="blur"
     id="feGaussianBlur4-5" /></filter><filter
   style="color-interpolation-filters:sRGB"
   id="filter3-9"
   x="-0.013542245"
   y="-0.016525329"
   width="1.0270845"
   height="1.0330507"><feGaussianBlur
     stdDeviation="2 2"
     result="blur"
     id="feGaussianBlur3-2" /></filter><filter
   style="color-interpolation-filters:sRGB"
   id="filter5"
   x="-0.029268293"
   y="-0.029268292"
   width="1.0585366"
   height="1.0585366"><feGaussianBlur
     stdDeviation="5 5"
     result="blur"
     id="feGaussianBlur5" /></filter><filter
   style="color-interpolation-filters:sRGB"
   id="filter4-0"
   x="-0.059999999"
   y="-0.059999999"
   width="1.12"
   height="1.12"><feGaussianBlur
     stdDeviation="10 10"
     result="blur"
     id="feGaussianBlur4-6" /></filter><filter
   style="color-interpolation-filters:sRGB"
   id="filter3-3"
   x="-0.013542245"
   y="-0.016525328"
   width="1.0270845"
   height="1.0330507"><feGaussianBlur
     stdDeviation="2 2"
     result="blur"
     id="feGaussianBlur3-20" /></filter><linearGradient
   xlink:href="#linearGradient5"
   id="linearGradient6"
   x1="-583.25232"
   y1="224"
   x2="-183.2523"
   y2="224"
   gradientUnits="userSpaceOnUse"
   gradientTransform="rotate(-90,-47.530095,-153.06197)" /></defs>
<style
   type="text/css"
   id="style1">
	.st0{fill:#FFFFFF;}
	.st1{fill:#026FB6;}
</style>






<g
   id="g2"><rect
     style="fill:#000000;stroke-width:4.2;stroke-dasharray:none;stroke-opacity:0.981132;paint-order:markers fill stroke"
     id="rect1"
     width="420"
     height="420"
     x="0"
     y="0"
     inkscape:export-filename="rect1.png"
     inkscape:export-xdpi="234.06"
     inkscape:export-ydpi="234.06" /><path
     class="st1"
     d="m 343.34799,177.09658 -39.70343,-62.27873 c 5.7213,-5.28028 9.32095,-12.82524 9.32095,-21.20456 0,-15.900444 -12.94444,-28.844883 -28.84488,-28.844883 -14.19597,0 -26.01999,10.310258 -28.40387,23.838746 h -91.51694 c -2.38388,-13.528488 -14.2079,-23.838746 -28.40387,-23.838746 -15.90044,0 -28.84488,12.944439 -28.84488,28.844883 0,8.40316 3.61157,15.97196 9.36863,21.25224 l -43.648748,68.46488 c -3.408941,-1.41841 -7.139705,-2.20508 -11.049259,-2.20508 -15.900444,0 -28.844883,12.94444 -28.844883,28.84488 0,15.90044 12.944439,28.84488 28.844883,28.84488 3.909554,0 7.640318,-0.78668 11.049259,-2.20508 l 43.648748,68.46488 c -5.75706,5.28028 -9.36863,12.84908 -9.36863,21.25224 0,15.90044 12.94444,28.84488 28.84488,28.84488 15.90044,0 28.84488,-12.94444 28.84488,-28.84488 0,-15.90045 -12.94444,-28.84488 -28.84488,-28.84488 -3.90955,0 -7.64032,0.78667 -11.04926,2.20508 L 81.097948,231.22245 c 5.745138,-5.28028 9.356708,-12.84908 9.356708,-21.25224 0,-8.40316 -3.61157,-15.97196 -9.356708,-21.25224 l 43.648742,-68.46488 c 3.40894,1.4184 7.12779,2.20508 11.04926,2.20508 14.19597,0 26.01999,-10.31026 28.40387,-23.838744 h 91.51694 c 2.38388,13.528484 14.2079,23.838744 28.40387,23.838744 3.93339,0 7.67607,-0.7986 11.09693,-2.22892 l 39.69152,62.25488 c 2.53882,-2.16932 5.37563,-3.99299 8.43891,-5.38755 z M 154.64048,326.31521 c 0,10.38177 -8.45084,18.83261 -18.83261,18.83261 -10.38177,0 -18.83261,-8.45084 -18.83261,-18.83261 0,-10.38178 8.45084,-18.83261 18.83261,-18.83261 10.38177,0 18.83261,8.45083 18.83261,18.83261 z M 42.789084,209.95829 c 0,-10.38177 8.450835,-18.83261 18.832609,-18.83261 10.381774,0 18.832609,8.45084 18.832609,18.83261 0,10.38177 -8.450835,18.83261 -18.832609,18.83261 -10.381774,0 -18.832609,-8.43892 -18.832609,-18.83261 z m 93.018786,-97.52431 c -10.38177,0 -18.83261,-8.45084 -18.83261,-18.83261 0,-10.381774 8.45084,-18.832609 18.83261,-18.832609 10.38177,0 18.83261,8.450835 18.83261,18.832609 0,10.38177 -8.45084,18.83261 -18.83261,18.83261 z M 265.28802,93.60137 c 0,-10.381774 8.45083,-18.832609 18.83261,-18.832609 10.38177,0 18.83261,8.450835 18.83261,18.832609 0,10.38177 -8.45084,18.83261 -18.83261,18.83261 -10.38178,0 -18.83261,-8.43892 -18.83261,-18.83261 z"
     id="path3-2"
     style="fill:#026fb6;stroke-width:1.19194" /><path
     class="st1"
     d="m 76.652022,242.90344 39.703428,62.27872 c -5.7213,5.28028 -9.32095,12.82525 -9.32095,21.20457 0,15.90044 12.94444,28.84488 28.84489,28.84488 14.19597,0 26.01999,-10.31026 28.40386,-23.83875 h 91.51695 c 2.38387,13.52849 14.20789,23.83875 28.40386,23.83875 15.90045,0 28.84489,-12.94444 28.84489,-28.84488 0,-8.40316 -3.61157,-15.97196 -9.36863,-21.25225 l 43.64874,-68.46488 c 3.40894,1.41841 7.13971,2.20509 11.04926,2.20509 15.90045,0 28.84489,-12.94444 28.84489,-28.84488 0,-15.90045 -12.94444,-28.84489 -28.84489,-28.84489 -3.90955,0 -7.64032,0.78668 -11.04926,2.20509 l -43.64874,-68.46488 c 5.75706,-5.28028 9.36863,-12.84909 9.36863,-21.252243 0,-15.900444 -12.94444,-28.844883 -28.84489,-28.844883 -15.90044,0 -28.84488,12.944439 -28.84488,28.844883 0,15.900443 12.94444,28.844883 28.84488,28.844883 3.90956,0 7.64032,-0.78668 11.04926,-2.20508 l 43.64875,68.46487 c -5.74514,5.28029 -9.35671,12.84909 -9.35671,21.25225 0,8.40315 3.61157,15.97196 9.35671,21.25224 l -43.64875,68.46488 c -3.40894,-1.41841 -7.12778,-2.20509 -11.04926,-2.20509 -14.19597,0 -26.01999,10.31026 -28.40386,23.83875 h -91.51695 c -2.38387,-13.52849 -14.20789,-23.83875 -28.40386,-23.83875 -3.9334,0 -7.67608,0.7986 -11.09694,2.22893 L 85.090938,237.51588 c -2.538826,2.16933 -5.375637,3.99299 -8.438916,5.38756 z M 265.35954,93.684806 c 0,-10.381774 8.45083,-18.832609 18.8326,-18.832609 10.38178,0 18.83261,8.450835 18.83261,18.832609 0,10.381774 -8.45083,18.832614 -18.83261,18.832614 -10.38177,0 -18.8326,-8.45084 -18.8326,-18.832614 z M 377.21093,210.04173 c 0,10.38177 -8.45083,18.8326 -18.83261,18.8326 -10.38177,0 -18.83261,-8.45083 -18.83261,-18.8326 0,-10.38178 8.45084,-18.83261 18.83261,-18.83261 10.38178,0 18.83261,8.43891 18.83261,18.83261 z m -93.01879,97.52431 c 10.38178,0 18.83261,8.45083 18.83261,18.8326 0,10.38178 -8.45083,18.83261 -18.83261,18.83261 -10.38177,0 -18.8326,-8.45083 -18.8326,-18.83261 0,-10.38177 8.45083,-18.8326 18.8326,-18.8326 z M 154.712,326.39864 c 0,10.38178 -8.45084,18.83261 -18.83261,18.83261 -10.38178,0 -18.83261,-8.45083 -18.83261,-18.83261 0,-10.38177 8.45083,-18.8326 18.83261,-18.8326 10.38177,0 18.83261,8.43891 18.83261,18.8326 z"
     id="path3-3-5"
     style="fill:#026fb6;stroke-width:1.19194" /><line
     x1="253.28311"
     y1="210"
     x2="290.46814"
     y2="210"
     stroke="#000000"
     stroke-width="2"
     id="line1-1"
     style="stroke:#ffffff;stroke-width:4.2;stroke-dasharray:none;stroke-opacity:1" /><line
     x1="129.53188"
     y1="182.66023"
     x2="166.71671"
     y2="182.66023"
     stroke="#000000"
     stroke-width="2"
     id="line1-1-5"
     style="stroke:#ffffff;stroke-width:4.2;stroke-dasharray:none;stroke-opacity:1" /><line
     x1="129.53189"
     y1="237.33975"
     x2="166.71689"
     y2="237.33975"
     stroke="#000000"
     stroke-width="2"
     id="line1-1-5-5"
     style="stroke:#ffffff;stroke-width:4.2;stroke-dasharray:none;stroke-opacity:1" /><line
     x1="166.71689"
     y1="168.99959"
     x2="212.47389"
     y2="168.99959"
     stroke="#000000"
     stroke-width="2"
     id="line1-0"
     style="stroke:#ffffff;stroke-width:4.2;stroke-dasharray:none;stroke-opacity:1" /><line
     x1="168.08388"
     y1="166.89035"
     x2="168.08388"
     y2="253.10963"
     stroke="#000000"
     stroke-width="2.00001"
     id="line1-0-9"
     style="stroke:#ffffff;stroke-width:4.2;stroke-dasharray:none;stroke-opacity:1" /><line
     x1="166.71689"
     y1="251.06429"
     x2="213.46098"
     y2="251.06429"
     stroke="#000000"
     stroke-width="2"
     id="line1-0-3"
     style="stroke:#ffffff;stroke-width:4.20001;stroke-dasharray:none;stroke-opacity:1" /><path
     d="m 212.27349,168.99036 c 22.64902,0 41.00963,18.36065 41.00963,41.00965 0,22.649 -18.32975,41.00963 -40.97877,41.00963"
     fill="none"
     stroke="black"
     stroke-width="2"
     id="path2"
     style="stroke:#ffffff;stroke-width:4.2;stroke-dasharray:none;stroke-opacity:1"
     sodipodi:nodetypes="csc" /></g></svg>
